<svg version="1.1" xmlns="http://www.w3.org/2000/svg" xmlns:xlink="http://www.w3.org/1999/xlink" width="70" height="70" viewBox="0,0,70,70" xmlns:odoo-icon="https://ivantodorovich.github.io/odoo-icon" odoo-icon:version="1.0" odoo-icon:size="70" odoo-icon:icon-size="0.65" odoo-icon:icon-color="#FFFFFF" odoo-icon:icon-flat-shadow-angle="135" odoo-icon:background-color="#001dfa" odoo-icon:background-gradient="0.2" odoo-icon:box-radius="3.5" odoo-icon:odoo-version="16.0"><defs><linearGradient x1="70" y1="0" x2="0" y2="70" gradientUnits="userSpaceOnUse" id="color-1"><stop offset="0" stop-color="#3350ff"/><stop offset="1" stop-color="#001dfa"/></linearGradient></defs><g fill="none" fill-rule="nonzero" stroke="none" stroke-width="1" stroke-linecap="butt" stroke-linejoin="miter" stroke-miterlimit="10" stroke-dasharray="" stroke-dashoffset="0" font-family="none" font-weight="none" font-size="none" text-anchor="none" style="mix-blend-mode: normal"><path d="M3.5,70c-1.933,0 -3.5,-1.567 -3.5,-3.5v-63c0,-1.933 1.567,-3.5 3.5,-3.5h63c1.933,0 3.5,1.567 3.5,3.5v63c0,1.933 -1.567,3.5 -3.5,3.5z" id="box" fill="url(#color-1)"/><path d="M65,1h-61c-1.95033,0 -3.2667,0.63396 -3.9491,1.90189c0.28378,-1.64806 1.72001,-2.90189 3.4491,-2.90189h63c1.72965,0 3.16627,1.25466 3.44938,2.90352c-0.69803,-1.26902 -2.34782,-1.90352 -4.94938,-1.90352z" id="topBoxShadow" fill="#ffffff" opacity="0.383"/><path d="M4,69h61c2.66667,0 4.33333,-1 5,-3v0.5c0,1.933 -1.567,3.5 -3.5,3.5h-63c-1.933,0 -3.5,-1.567 -3.5,-3.5c0,-0.1611 0,-0.32777 0,-0.5c0.66667,2 2,3 4,3z" id="bottomBoxShadow" fill="#000000" opacity="0.383"/><path d="M56.35714,34.53571h-19.71429v-4.92857h1.64286c1.81477,0 3.28571,-1.47095 3.28571,-3.28571v-6.57143c0,-1.81477 -1.47095,-3.28571 -3.28571,-3.28571h-6.57143c-1.81477,0 -3.28571,1.47095 -3.28571,3.28571v6.57143c0,1.81477 1.47095,3.28571 3.28571,3.28571h1.64286v4.92857h-19.71429c-0.90738,0 -1.64286,0.73547 -1.64286,1.64286c0,0.90738 0.73547,1.64286 1.64286,1.64286h6.57143v6.57143h-1.64286c-1.81477,0 -3.28571,1.47095 -3.28571,3.28571v6.57143c0,1.81477 1.47095,3.28571 3.28571,3.28571h6.57143c1.81477,0 3.28571,-1.47095 3.28571,-3.28571v-6.57143c0,-1.81477 -1.47095,-3.28571 -3.28571,-3.28571h-1.64286v-6.57143h23v6.57143h-1.64286c-1.81477,0 -3.28571,1.47095 -3.28571,3.28571v6.57143c0,1.81477 1.47095,3.28571 3.28571,3.28571h6.57143c1.81477,0 3.28571,-1.47095 3.28571,-3.28571v-6.57143c0,-1.81477 -1.47095,-3.28571 -3.28571,-3.28571h-1.64286v-6.57143h6.57143c0.90738,0 1.64286,-0.73547 1.64286,-1.64286c0,-0.90738 -0.73547,-1.64286 -1.64286,-1.64286M31.71429,19.75h6.57143v6.57143h-6.57143zM25.14286,54.25h-6.57143v-6.57143h6.57143zM51.42857,54.25h-6.57143v-6.57143h6.57143z" id="shadow" fill="#000000" opacity="0.3"/><path d="M29.39089,15.42661c0.59458,-0.59458 1.41601,-0.96232 2.32339,-0.96232h6.57143c1.81477,0 3.28571,1.47095 3.28571,3.28571v6.57143l-4.92857,4.92857v3.28571h19.71429c0.90738,0 1.64286,0.73547 1.64286,1.64286c0,0.45369 -0.18387,0.86441 -0.48116,1.1617l-7.05259,7.05259h0.96232c1.81477,0 3.28571,1.47095 3.28571,3.28571v6.57143c0,0.90738 -0.36774,1.72881 -0.96232,2.32339l0,0l-15.42661,15.42661h-34.82536c-1.933,0 -3.5,-1.567 -3.5,-3.5l0,-21.6825z" id="flatShadow" fill="#000000" opacity="0.324"/><path d="M56.35714,32.53571h-19.71429v-4.92857h1.64286c1.81477,0 3.28571,-1.47095 3.28571,-3.28571v-6.57143c0,-1.81477 -1.47095,-3.28571 -3.28571,-3.28571h-6.57143c-1.81477,0 -3.28571,1.47095 -3.28571,3.28571v6.57143c0,1.81477 1.47095,3.28571 3.28571,3.28571h1.64286v4.92857h-19.71429c-0.90738,0 -1.64286,0.73547 -1.64286,1.64286c0,0.90738 0.73547,1.64286 1.64286,1.64286h6.57143v6.57143h-1.64286c-1.81477,0 -3.28571,1.47095 -3.28571,3.28571v6.57143c0,1.81477 1.47095,3.28571 3.28571,3.28571h6.57143c1.81477,0 3.28571,-1.47095 3.28571,-3.28571v-6.57143c0,-1.81477 -1.47095,-3.28571 -3.28571,-3.28571h-1.64286v-6.57143h23v6.57143h-1.64286c-1.81477,0 -3.28571,1.47095 -3.28571,3.28571v6.57143c0,1.81477 1.47095,3.28571 3.28571,3.28571h6.57143c1.81477,0 3.28571,-1.47095 3.28571,-3.28571v-6.57143c0,-1.81477 -1.47095,-3.28571 -3.28571,-3.28571h-1.64286v-6.57143h6.57143c0.90738,0 1.64286,-0.73547 1.64286,-1.64286c0,-0.90738 -0.73547,-1.64286 -1.64286,-1.64286M31.71429,17.75h6.57143v6.57143h-6.57143zM25.14286,52.25h-6.57143v-6.57143h6.57143zM51.42857,52.25h-6.57143v-6.57143h6.57143z" id="icon" fill="#ffffff"/></g></svg>